<?xml version="1.0" encoding="UTF-8" standalone="no"?>
<!-- Created with Inkscape (http://www.inkscape.org/) -->

<svg
   xmlns:dc="http://purl.org/dc/elements/1.1/"
   xmlns:cc="http://creativecommons.org/ns#"
   xmlns:rdf="http://www.w3.org/1999/02/22-rdf-syntax-ns#"
   xmlns:svg="http://www.w3.org/2000/svg"
   xmlns="http://www.w3.org/2000/svg"
   version="1.1"
   width="560"
   height="85"
   id="svg2">
  <defs
     id="defs4" />
  <metadata
     id="metadata7">
    <rdf:RDF>
      <cc:Work
         rdf:about="">
        <dc:format>image/svg+xml</dc:format>
        <dc:type
           rdf:resource="http://purl.org/dc/dcmitype/StillImage" />
        <dc:title></dc:title>
      </cc:Work>
    </rdf:RDF>
  </metadata>
  <g
     transform="translate(0,-967.36209)"
     id="layer1">
    <path
       d="m 6.858251,973.15715 0,74.24625 31.314728,0 c 41.835521,-0.488 43.067941,-73.2931 0,-74.24625 z"
       id="path3050"
       style="fill:#000000;stroke:#000000;stroke-width:1px;stroke-linecap:butt;stroke-linejoin:miter;stroke-opacity:1" />
    <path
       d="m 21.000387,986.28913 0,47.98227 10.101522,0 c 37.79552,0.6285 30.56035,-55.74665 -10.101522,-47.98227 z"
       id="path3052"
       style="fill:#ffffff;stroke:none" />
    <path
       d="m 53.325269,1046.8983 14.14214,0 19.697971,-48.48734 19.69797,48.99244 14.64722,0 -29.29443,-73.74117 -9.59645,0 z"
       id="path3054"
       style="fill:#000000;stroke:#000000;stroke-width:1px;stroke-linecap:butt;stroke-linejoin:miter;stroke-opacity:1" />
    <path
       d="m 163.29232,973.66222 -14.14214,0 -19.69797,48.48738 -19.69797,-48.99245 -14.64722,0 29.29443,73.74115 9.59645,0 z"
       id="path3056"
       style="fill:#000000;stroke:#000000;stroke-width:1px;stroke-linecap:butt;stroke-linejoin:miter;stroke-opacity:1" />
    <path
       d="m 159.89636,988.22278 0,58.67552 13.63706,0 0,-73.74115 -7.57614,0 z"
       id="path3058"
       style="fill:#000000;stroke:#000000;stroke-width:1px;stroke-linecap:butt;stroke-linejoin:miter;stroke-opacity:1" />
    <path
       d="m 176.85825,973.15715 0,74.24625 31.31473,0 c 41.83552,-0.488 43.06794,-73.2931 0,-74.24625 z"
       id="path3828"
       style="fill:#000000;stroke:#000000;stroke-width:1px;stroke-linecap:butt;stroke-linejoin:miter;stroke-opacity:1" />
    <path
       d="m 191.00039,986.28913 0,47.98227 10.10152,0 c 37.79552,0.6285 30.56035,-55.74665 -10.10152,-47.98227 z"
       id="path3830"
       style="fill:#ffffff;stroke:none" />
    <path
       d="m 485.32527,1046.8983 14.14214,0 19.69797,-48.48734 19.69797,48.99244 14.64722,0 -29.29443,-73.74117 -9.59645,0 z"
       id="path3832"
       style="fill:#000000;stroke:#000000;stroke-width:1px;stroke-linecap:butt;stroke-linejoin:miter;stroke-opacity:1" />
    <path
       d="m 317.98524,994.37035 16.16244,0 c -7.58473,-18.49156 -15.30354,-22.72843 -32.82996,-22.72843 -20.06522,-1.62034 -39.90103,17.45672 -39.90103,37.37568 0,19.818 18.38393,40.4061 36.87057,40.4061 17.62665,0 27.19801,-6.6698 36.87057,-20.2031 1.78913,25.2282 48.36874,27.9873 50.00255,0 l 0,-56.06345 -13.63706,0 0,53.53805 c -0.72231,12.7573 -22.68099,12.4707 -23.73858,0 l 0,-53.53805 -13.63706,0 0,35.86045 -39.39595,0 -5.55584,12.6269 31.8198,0 c -4.93479,6.7135 -6.3706,14.045 -21.2132,14.6472 -14.74068,-0.2666 -23.27058,-13.02 -24.74874,-25.2538 0,-13.88013 14.70964,-26.76907 25.25382,-26.76907 11.03694,0 15.0757,5.08906 17.67767,10.10152 z"
       id="path3834"
       style="fill:#000000;stroke:#000000;stroke-width:1px;stroke-linecap:butt;stroke-linejoin:miter;stroke-opacity:1" />
    <path
       d="m 388.69591,973.15715 122.22846,0 -4.54568,12.62691 -14.64722,0 0,48.48734 -5.55583,12.6269 -8.5863,0 0,-61.11424 -23.23351,0 0,61.11424 -14.14214,0 0,-60.60917 -37.88072,0 0,17.17257 -0.50507,0 0,0 28.78935,0 -4.54569,13.132 -23.73859,0 0,18.1828 27.27412,0 0,12.6269 -40.91118,0 z"
       id="path3836"
       style="fill:#000000;stroke:#000000;stroke-width:1px;stroke-linecap:butt;stroke-linejoin:miter;stroke-opacity:1" />
    <path
       d="m 526.58174,973.15715 26.76904,0 -5.55584,12.12183 -15.15229,0 z"
       id="path3838"
       style="fill:#000000;stroke:#000000;stroke-width:1px;stroke-linecap:butt;stroke-linejoin:miter;stroke-opacity:1" />
  </g>
</svg>
