<?xml version="1.0" encoding="UTF-8"?>
<svg xmlns="http://www.w3.org/2000/svg" xmlns:xlink="http://www.w3.org/1999/xlink" width="792pt" height="178.6pt" viewBox="0 0 792 178.6" version="1.1">
<g id="surface1">
<path style=" stroke:none;fill-rule:nonzero;fill:rgb(13.699341%,12.199402%,12.5%);fill-opacity:1;" d="M 412.230469 122.863281 C 412.230469 135.097656 402.195313 145.011719 389.824219 145.011719 C 377.449219 145.011719 367.417969 135.097656 367.417969 122.863281 L 367.417969 108.660156 C 367.417969 96.425781 377.449219 86.511719 389.824219 86.511719 C 402.195313 86.511719 412.230469 96.425781 412.230469 108.660156 Z M 760.835938 14.511719 L 122.667969 14.511719 L 122.667969 73.011719 L 61.5 73.011719 L 61.5 14.511719 L 23.167969 14.511719 L 23.167969 163.011719 L 61.5 163.011719 L 61.5 100.511719 L 122.667969 100.511719 L 122.667969 163.011719 L 159.667969 163.011719 L 159.667969 43.011719 L 409.835938 43.011719 L 409.835938 78.347656 C 409.835938 78.347656 403.167969 68.257813 384.167969 68.011719 C 371.285156 67.84375 354.164063 72.171875 345.167969 87.894531 L 345.167969 70.011719 C 345.167969 70.011719 343.832031 69.679688 331.832031 70.011719 C 319.832031 70.347656 311.167969 85.34375 311.167969 85.34375 L 311.167969 72.011719 L 284.917969 72.011719 L 284.917969 163.011719 L 313.832031 163.011719 C 313.832031 163.011719 313.832031 146.679688 313.832031 134.511719 C 313.832031 122.347656 311.667969 115.179688 318.667969 103.511719 C 323.96875 94.675781 336.433594 94.15625 342.171875 94.425781 C 339.820313 100.953125 338.636719 108.957031 339.167969 118.761719 C 341.417969 160.261719 374.167969 164.898438 383.667969 164.898438 C 393.167969 164.898438 405.167969 159.261719 412.417969 152.511719 L 412.417969 163.011719 L 440 163.011719 L 440 43.011719 L 698.167969 43.011719 L 698.167969 162.679688 L 727.5 162.679688 L 727.5 43.011719 L 739.167969 43.011719 L 739.167969 162.679688 L 768.835938 162.679688 L 768.835938 22.511719 C 768.835938 18.09375 765.253906 14.511719 760.835938 14.511719 "/>
<path style=" stroke:none;fill-rule:nonzero;fill:rgb(13.699341%,12.199402%,12.5%);fill-opacity:1;" d="M 235.667969 139.386719 C 229.792969 144.636719 201.667969 150.886719 200.292969 133.886719 C 198.917969 116.886719 236.542969 118.886719 240.792969 117.886719 C 240.792969 117.886719 241.542969 134.136719 235.667969 139.386719 Z M 269 90.511719 C 268.167969 83.34375 260.667969 68.179688 224.835938 68.011719 C 189 67.847656 177.832031 78.679688 173.167969 97.761719 L 198.667969 101.511719 C 198.667969 101.511719 201.167969 92.511719 207.542969 89.761719 C 213.917969 87.011719 226.167969 88.164063 229.542969 88.402344 C 232.917969 88.636719 240.917969 90.011719 240.667969 101.511719 C 240.667969 101.511719 239.6875 102.46875 234.042969 103.136719 C 228.976563 103.734375 218.632813 104.109375 208.464844 104.996094 C 186.964844 106.871094 169.835938 114.179688 170 137.511719 C 170.167969 160.847656 210 176.847656 242.667969 151.847656 L 247 163.011719 L 276.335938 163.011719 C 276.335938 163.011719 271.167969 156.179688 269.835938 142.347656 C 268.5 128.511719 269.835938 97.679688 269 90.511719 "/>
<path style=" stroke:none;fill-rule:nonzero;fill:rgb(13.699341%,12.199402%,12.5%);fill-opacity:1;" d="M 570.667969 70.011719 L 551.667969 123.011719 L 534.292969 70.011719 L 506.792969 70.011719 L 492.167969 122.886719 L 472.667969 70.011719 L 441.417969 70.011719 L 476.167969 163.011719 L 502.417969 163.011719 L 520.167969 105.761719 L 538.167969 163.011719 L 564.167969 163.011719 L 596.667969 70.011719 L 570.667969 70.011719 "/>
<path style=" stroke:none;fill-rule:nonzero;fill:rgb(13.699341%,12.199402%,12.5%);fill-opacity:1;" d="M 640.292969 87.179688 C 660.644531 87.769531 661.167969 104.679688 661.167969 104.679688 L 617.335938 104.679688 C 617.335938 104.679688 620.210938 86.59375 640.292969 87.179688 Z M 649.75 143.347656 C 641.085938 146.011719 616.25 145.425781 617.417969 122.511719 L 690.167969 122.511719 C 690.167969 122.511719 698.917969 70.011719 639.667969 70.011719 C 580.417969 70.011719 581.566406 122.585938 592.917969 140.511719 C 603.917969 157.886719 620.832031 163.003906 641.335938 163.011719 C 663.042969 163.019531 683.074219 154.511719 690.621094 132.261719 L 663.667969 129.511719 C 663.667969 129.511719 658.214844 140.742188 649.75 143.347656 "/>
</g>
</svg>
