<?xml version="1.0" encoding="UTF-8"?>
<svg xmlns="http://www.w3.org/2000/svg" xmlns:xlink="http://www.w3.org/1999/xlink" width="585.01pt" height="467.86pt" viewBox="0 0 585.01 467.86" version="1.1">
<defs>
<clipPath id="clip1">
  <path d="M 0 73 L 507 73 L 507 467.859375 L 0 467.859375 Z M 0 73 "/>
</clipPath>
<clipPath id="clip2">
  <path d="M 467 134 L 585.011719 134 L 585.011719 401 L 467 401 Z M 467 134 "/>
</clipPath>
</defs>
<g id="surface1">
<path style=" stroke:none;fill-rule:evenodd;fill:rgb(17.298889%,16.099548%,16.499329%);fill-opacity:1;" d="M 395.007813 85.292969 C 398.007813 96.167969 396.257813 182.792969 398.007813 192.167969 L 399.007813 192.167969 C 400.289063 191.105469 402.242188 190.375 402.609375 188.773438 C 405.507813 176.167969 412.960938 172.898438 416.257813 162.792969 C 417.367188 159.390625 418.542969 106.28125 418.007813 80.167969 C 426.421875 78.515625 434.328125 73.792969 442.632813 73.792969 C 446.382813 73.792969 449.5625 76.414063 453.132813 76.167969 C 455.128906 76.03125 456.910156 75.273438 459.007813 75.167969 C 459.675781 111.5 460.339844 147.839844 461.007813 184.167969 L 462.007813 184.167969 C 466.671875 178.503906 471.339844 172.835938 476.007813 167.167969 C 476.675781 147.835938 477.339844 128.5 478.007813 109.167969 L 479.007813 109.167969 C 490.757813 119.800781 500.839844 138.667969 511.007813 155.167969 C 511.675781 155.503906 512.339844 155.835938 513.007813 156.167969 C 519.058594 151.523438 527.472656 138.335938 527.214844 136.835938 C 525.378906 126.148438 524.996094 67.320313 525.007813 41.167969 C 525.011719 30.046875 530.175781 -2.664063 525.007813 0.167969 C 522.015625 4.050781 516.992188 6.898438 514.839844 11.503906 C 514.128906 13.023438 514.136719 15.074219 513.507813 16.667969 C 512.425781 19.414063 509.933594 17.605469 509.675781 20.667969 C 508.007813 40.167969 505.476563 80.898438 506.007813 114.167969 L 505.007813 114.167969 C 500.945313 104.125 497.070313 98.066406 489.382813 90.167969 C 487.359375 88.09375 489.5625 83.941406 487.257813 82.167969 C 481.753906 77.933594 469.246094 73.058594 462.007813 71.167969 C 464.277344 63.257813 469.875 61.9375 474.007813 56.167969 C 473.675781 55.167969 471.089844 51.417969 470.757813 50.417969 C 467.132813 47.667969 439.691406 54.589844 427.007813 58.167969 C 400.304688 65.703125 328.039063 88.960938 305.632813 99.292969 C 304.964844 99.628906 303.675781 101.835938 303.007813 102.167969 C 306.882813 108.917969 327.9375 100.273438 347.132813 96.167969 C 348.078125 95.964844 347.28125 98.265625 348.230469 98.054688 C 367.960938 93.703125 388.015625 87.949219 395.007813 85.292969 "/>
<g clip-path="url(#clip1)" clip-rule="nonzero">
<path style=" stroke:none;fill-rule:evenodd;fill:rgb(17.298889%,16.099548%,16.499329%);fill-opacity:1;" d="M 354.007813 271.167969 L 353.007813 271.167969 C 353.675781 265.835938 354.339844 257.667969 355.007813 252.335938 C 359.839844 249.667969 378.875 243.175781 388.007813 238.167969 L 391.007813 238.167969 C 384.339844 251.335938 366.214844 264.839844 354.007813 271.167969 M 270.007813 328.167969 C 273.007813 318.835938 276.007813 309.503906 279.007813 300.167969 C 282.964844 303.789063 285.546875 309.082031 287.007813 315.167969 C 281.339844 319.503906 275.671875 323.835938 270.007813 328.167969 M 269.007813 261.167969 C 260.671875 277.148438 257.296875 298.476563 254.007813 326.167969 C 233.824219 333.574219 239.257813 324.417969 193.007813 341.167969 C 169.675781 352.167969 145.757813 360.417969 123.007813 374.167969 C 120.382813 383.785156 119.230469 388.835938 114.007813 395.167969 L 114.007813 399.167969 L 115.007813 400.167969 C 137.175781 393.609375 156.574219 378.917969 182.007813 371.167969 L 189.007813 371.167969 C 190.339844 376.503906 191.675781 381.835938 193.007813 387.167969 C 171.257813 407.667969 109.757813 441.917969 70.007813 424.167969 C 55.414063 402.703125 76.445313 379.910156 89.007813 367.167969 C 121.257813 334.453125 168.757813 307.167969 234.007813 305.167969 C 227.839844 297.804688 219.855469 293.960938 218.007813 282.167969 C 189.511719 282.238281 164.660156 285.472656 145.007813 294.167969 L 144.007813 294.167969 C 148.363281 251.972656 165.507813 219.917969 180.007813 192.167969 C 184.257813 200.917969 184.007813 264.917969 197.007813 279.167969 C 203.957031 277.695313 206.882813 274.867188 209.007813 271.390625 C 209.96875 269.816406 213.257813 270.894531 213.257813 268.917969 C 213.253906 261.667969 210.554688 249.125 210.007813 237.167969 C 212.339844 235.503906 214.675781 233.835938 217.007813 232.167969 C 216.675781 244.835938 216.339844 257.503906 216.007813 270.167969 C 216.675781 270.503906 217.339844 270.835938 218.007813 271.167969 C 220.382813 259.667969 227.171875 249.046875 227.257813 246.667969 C 227.507813 239.667969 228.699219 231.46875 229.007813 222.167969 C 238.671875 216.167969 248.339844 210.167969 258.007813 204.167969 C 260.855469 219.835938 272.007813 255.417969 269.007813 261.167969 M 244.007813 177.167969 C 248.027344 179.960938 250.144531 185.28125 252.007813 190.167969 C 246.675781 194.503906 241.339844 198.835938 236.007813 203.167969 L 235.007813 203.167969 C 238.007813 194.503906 239.257813 185.417969 244.007813 177.167969 M 324.007813 136.167969 C 329.1875 129.347656 343.023438 128.113281 351.007813 124.167969 L 355.007813 124.167969 C 349.757813 132.667969 331.492188 142.464844 322.007813 147.167969 L 321.007813 147.167969 C 322.007813 143.503906 323.007813 139.835938 324.007813 136.167969 M 431.007813 234.167969 C 436.339844 232.503906 441.675781 230.835938 447.007813 229.167969 L 452.007813 229.167969 C 447.027344 235.742188 438.914063 239.578125 431.007813 243.167969 L 430.007813 243.167969 C 430.339844 240.167969 430.675781 237.167969 431.007813 234.167969 M 486.007813 277.167969 C 487.007813 281.835938 488.007813 286.503906 489.007813 291.167969 C 492.007813 293.167969 495.007813 295.167969 498.007813 297.167969 C 499.320313 284.816406 503.894531 274.015625 506.007813 264.167969 L 506.007813 212.167969 C 500.675781 207.167969 495.339844 202.167969 490.007813 197.167969 L 484.007813 197.167969 C 485.007813 219.835938 486.007813 242.503906 487.007813 265.167969 L 487.007813 269.167969 C 480.089844 267.015625 479.976563 261.285156 479.007813 261.167969 C 474.371094 260.613281 451.976563 256.257813 446.007813 253.167969 L 444.007813 253.167969 C 457.507813 238.808594 471.007813 236.167969 481.007813 212.167969 L 480.007813 211.167969 C 458.425781 208.414063 431.144531 216.863281 415.007813 224.167969 C 410.863281 222.328125 412.191406 218.730469 406.003906 219.136719 C 403.390625 219.3125 391.175781 222.503906 381.175781 223.167969 C 379.40625 223.285156 380.433594 227.109375 378.675781 227.667969 C 357.582031 234.359375 330.285156 242.566406 329.007813 244.167969 C 328.675781 260.5 328.339844 276.835938 328.007813 293.167969 C 323.675781 295.167969 319.339844 297.167969 315.007813 299.167969 L 314.007813 299.167969 C 313.503906 292.867188 312.398438 286.109375 312.175781 279.667969 C 312.160156 279.28125 313.316406 279.066406 313.300781 278.675781 C 313.230469 276.992188 313.140625 275.320313 313.007813 273.667969 C 305.339844 266.667969 296.671875 260.167969 289.007813 253.167969 C 286.339844 232.503906 284.507813 212.835938 281.839844 192.167969 L 291.839844 187.167969 C 292.007813 212.335938 293.179688 240.535156 295.679688 248.035156 C 295.679688 248.703125 296.007813 250.503906 296.007813 251.167969 C 296.984375 250.019531 297.097656 250.152344 297.769531 248.644531 C 300.285156 242.980469 301.867188 233.976563 305.507813 229.835938 C 308.769531 226.121094 305.867188 187.585938 316.007813 175.167969 C 337.039063 186.839844 362.554688 199.84375 394.007813 200.167969 L 394.007813 199.167969 C 385.507813 192.167969 385.257813 187.292969 385.257813 178.667969 C 384.257813 176.792969 337.304688 159.652344 326.007813 156.167969 C 325.675781 155.503906 325.339844 154.835938 325.007813 154.167969 C 353.257813 140.917969 390.257813 134.167969 393.007813 97.167969 L 393.007813 96.167969 C 390.257813 92.917969 363.324219 96.507813 341.757813 104.917969 C 324.777344 111.542969 307.996094 121.074219 300.007813 123.667969 C 296.832031 129.113281 297.40625 137.171875 295.839844 146.003906 C 295.671875 146.964844 294.199219 149.140625 294.054688 150.105469 C 293.25 155.410156 292.992188 159.472656 293.007813 164.167969 C 288.339844 166.835938 283.671875 169.503906 279.007813 172.167969 C 273.585938 157.734375 270.230469 134.597656 268.675781 133.003906 C 263.726563 127.929688 257.542969 121.066406 250.007813 118.167969 C 243.394531 125.359375 238.589844 142.957031 233.175781 161.003906 C 232.917969 161.855469 230.1875 163.648438 229.9375 164.507813 C 223.910156 185.214844 220.167969 205.574219 219.007813 220.167969 C 215.675781 223.167969 212.339844 226.167969 209.007813 229.167969 C 202.757813 186.167969 209.007813 124.167969 219.007813 106.167969 C 220.566406 103.363281 205.671875 83.503906 200.007813 73.167969 C 194.757813 71.417969 183.421875 95.007813 178.007813 103.167969 C 173.390625 110.128906 169.640625 119.433594 165.507813 126.335938 C 164.066406 128.738281 162.222656 124.566406 160.839844 127.003906 C 152.648438 141.445313 145.269531 160.792969 139.007813 179.167969 C 134.675781 195.167969 130.339844 211.171875 126.007813 227.167969 L 126.007813 229.167969 C 114.175781 206.003906 98.175781 174.335938 93.507813 143.335938 C 93.335938 142.199219 91.238281 140.769531 91.175781 139.667969 C 90.828125 133.769531 92.78125 124.007813 94.007813 120.167969 C 80.832031 111.46875 64.246094 99.003906 43.007813 102.167969 C 42.675781 113.5 42.339844 124.835938 42.007813 136.167969 C 38.675781 163.164063 35.339844 190.171875 32.007813 217.167969 C 22.175781 280.667969 9.675781 345.835938 0.0078125 407.835938 C -0.128906 408.714844 1.765625 407.453125 1.675781 408.335938 C 1.472656 410.277344 0.0078125 415.167969 0.0078125 415.167969 C 13.339844 412.503906 15.773438 392.328125 15.96875 384.53125 C 16.09375 379.488281 20.792969 375.960938 23.675781 371.003906 C 29.5625 360.867188 28.925781 346.402344 39.6875 332.226563 C 45.175781 325.003906 53.175781 284.503906 58.007813 271.167969 C 63.671875 256.171875 69.339844 241.167969 75.007813 226.167969 L 76.007813 226.167969 C 77.980469 228.648438 80.328125 234.632813 82.175781 237.335938 C 83.246094 238.90625 83.160156 235.324219 83.855469 237.128906 C 93.175781 261.335938 108.707031 285.390625 121.007813 305.167969 C 108.675781 313.167969 96.339844 321.171875 84.007813 329.167969 C 84.339844 326.167969 84.675781 323.167969 85.007813 320.167969 C 63.136719 336.40625 -10.847656 429.640625 42.007813 458.167969 C 101.757813 490.417969 190.257813 434.167969 215.007813 406.167969 C 223.6875 396.347656 242.355469 386.082031 244.007813 370.167969 C 238.339844 371.503906 232.671875 372.835938 227.007813 374.167969 C 226.675781 369.167969 226.339844 364.167969 226.007813 359.167969 C 230.007813 358.503906 234.007813 357.835938 238.007813 357.167969 C 237.007813 361.167969 236.007813 365.167969 235.007813 369.167969 C 240.339844 365.835938 245.675781 362.503906 251.007813 359.167969 C 247.910156 370.464844 250.445313 387.285156 252.007813 398.167969 L 253.007813 398.167969 C 255.191406 391.117188 260.410156 389.289063 262.007813 383.167969 C 263.339844 371.503906 264.675781 359.835938 266.007813 348.167969 C 270.316406 340.5625 284.871094 334.847656 293.007813 331.167969 L 323.007813 421.167969 L 329.007813 424.167969 C 328.398438 418.945313 326.386719 415.09375 326.507813 409.835938 C 327.175781 380.667969 320.398438 350.277344 317.007813 321.167969 C 320.339844 319.835938 323.675781 318.503906 327.007813 317.167969 L 330.007813 317.167969 C 329.863281 331.109375 330.324219 346.171875 333.269531 357.441406 C 333.269531 358.105469 334.007813 360.503906 334.007813 361.167969 C 334.339844 361.167969 336.175781 361.335938 336.507813 361.335938 C 342.175781 337.167969 346.203125 342.0625 347.414063 329.328125 C 348.289063 320.101563 348.238281 310.136719 348.007813 300.167969 C 369.484375 304.554688 386.953125 314.910156 413.007813 316.167969 C 413.339844 315.503906 413.675781 314.835938 414.007813 314.167969 C 410.929688 309.316406 409.074219 304.480469 409.007813 296.167969 L 364.007813 281.167969 C 363.675781 280.503906 363.339844 279.835938 363.007813 279.167969 C 377.507813 268.335938 400.828125 252.128906 407.007813 237.167969 C 407.675781 236.835938 409.339844 234.667969 410.007813 234.335938 C 409.671875 262.273438 414.175781 303.335938 417.007813 316.167969 L 418.007813 316.167969 C 420.839844 309.003906 423.960938 307.269531 425.414063 301.542969 C 427.261719 294.285156 427.753906 283.777344 427.007813 266.167969 C 446.507813 270.46875 462.859375 276.757813 486.007813 277.167969 "/>
</g>
<path style=" stroke:none;fill-rule:evenodd;fill:rgb(17.298889%,16.099548%,16.499329%);fill-opacity:1;" d="M 427.007813 190.167969 C 428.007813 190.835938 429.757813 191.503906 430.757813 192.167969 C 435.382813 180.417969 446.296875 171.316406 449.007813 168.167969 C 452.882813 163.667969 449.757813 94.417969 447.757813 91.417969 C 445.757813 88.417969 430.007813 81.792969 428.007813 83.167969 C 426.007813 84.542969 427.339844 154.507813 427.007813 190.167969 "/>
<g clip-path="url(#clip2)" clip-rule="nonzero">
<path style=" stroke:none;fill-rule:evenodd;fill:rgb(17.298889%,16.099548%,16.499329%);fill-opacity:1;" d="M 583.171875 253.835938 C 579.171875 250.167969 575.007813 247.835938 571.007813 244.167969 L 548.007813 221.167969 C 548.671875 219.503906 549.339844 217.835938 550.007813 216.167969 C 553.671875 207.503906 557.339844 198.835938 561.007813 190.167969 C 563.007813 180.171875 565.007813 170.167969 567.007813 160.167969 C 565.714844 149.433594 556.167969 139.40625 549.007813 134.167969 L 546.007813 134.167969 C 541.339844 155.835938 536.671875 177.503906 532.007813 199.167969 L 531.007813 199.167969 C 520.238281 188.457031 524.007813 178.667969 503.007813 177.167969 L 493.007813 177.167969 C 496.445313 197.816406 515.285156 208.492188 523.007813 225.167969 C 521.507813 235.503906 512.644531 263.421875 509.007813 276.167969 C 496.507813 320.003906 481.171875 359.003906 467.007813 400.167969 C 470.839844 398.503906 473.5 389.480469 476.671875 384.835938 C 478.335938 382.40625 480.890625 383.203125 482.378906 380.492188 C 493.117188 360.9375 499.773438 335.023438 508.007813 316.167969 C 514.671875 303.835938 521.339844 291.503906 528.007813 279.167969 C 532.507813 268.886719 533.972656 254.027344 542.007813 247.167969 C 553.007813 257.835938 564.007813 268.503906 575.007813 279.167969 C 578.007813 282.167969 582.007813 286.835938 585.007813 289.835938 C 584.738281 280.917969 582.816406 269 582.339844 259.335938 C 582.296875 258.429688 583.355469 258.5625 583.316406 257.679688 C 583.257813 256.363281 583.210938 255.082031 583.171875 253.835938 "/>
</g>
</g>
</svg>
